<mxfile host="app.diagrams.net" modified="2023-08-21T23:31:40.293Z" agent="Mozilla/5.0 (Windows NT 10.0; Win64; x64) AppleWebKit/537.36 (KHTML, like Gecko) Chrome/116.0.0.0 Safari/537.36" version="21.5.2" etag="r3tvQ4QsXjILfB6C2oBr" type="github">
  <diagram name="PÃ¡gina-1" id="rVmpqrfh-S5TfDJydxDu">
    <mxGraphModel>
      <root>
        <mxCell id="0" />
        <mxCell id="1" parent="0" />
      </root>
    </mxGraphModel>
  </diagram>
</mxfile>
